<svg xmlns="http://www.w3.org/2000/svg" width="32" height="32" viewBox="0 0 32 32"><path fill="currentColor" d="M20.079 21.805a.768.768 0 1 1 1.086-1.086l9.956 9.956a.768.768 0 1 1-1.086 1.086l-9.956-9.956z"/><path fill="currentColor" d="M12.8 25.088C6.014 25.088.512 19.586.512 12.8S6.014.512 12.8.512c6.786 0 12.288 5.502 12.288 12.288S19.586 25.088 12.8 25.088zm0-1.536c5.938 0 10.752-4.814 10.752-10.752S18.738 2.048 12.8 2.048C6.862 2.048 2.048 6.862 2.048 12.8S6.862 23.552 12.8 23.552z"/></svg>